<mxfile host="Electron" agent="Mozilla/5.0 (Windows NT 10.0; Win64; x64) AppleWebKit/537.36 (KHTML, like Gecko) draw.io/24.7.17 Chrome/128.0.6613.36 Electron/32.0.1 Safari/537.36" version="24.7.17">
  <diagram name="PÃ¡gina-1" id="7MbBOhCQEYI8DmXKmxkf">
    <mxGraphModel dx="2261" dy="836" grid="1" gridSize="10" guides="1" tooltips="1" connect="1" arrows="1" fold="1" page="1" pageScale="1" pageWidth="827" pageHeight="1169" math="0" shadow="0">
      <root>
        <mxCell id="0" />
        <mxCell id="1" parent="0" />
        <mxCell id="V6bk0OhXfuwTqJnnZIJM-1" value="Empleado de mesa&lt;div&gt;&lt;br&gt;&lt;/div&gt;" style="shape=umlActor;verticalLabelPosition=bottom;verticalAlign=top;html=1;outlineConnect=0;" vertex="1" parent="1">
          <mxGeometry x="40" y="240" width="40" height="80" as="geometry" />
        </mxCell>
        <mxCell id="V6bk0OhXfuwTqJnnZIJM-2" value="" style="whiteSpace=wrap;html=1;aspect=fixed;" vertex="1" parent="1">
          <mxGeometry x="150" y="190" width="550" height="550" as="geometry" />
        </mxCell>
        <mxCell id="V6bk0OhXfuwTqJnnZIJM-3" value="Empleado de rendiciones&lt;div&gt;&lt;br&gt;&lt;/div&gt;" style="shape=umlActor;verticalLabelPosition=bottom;verticalAlign=top;html=1;outlineConnect=0;" vertex="1" parent="1">
          <mxGeometry x="40" y="520" width="40" height="80" as="geometry" />
        </mxCell>
        <mxCell id="V6bk0OhXfuwTqJnnZIJM-13" value="" style="shape=singleArrow;whiteSpace=wrap;html=1;" vertex="1" parent="1">
          <mxGeometry x="80" y="280" width="160" height="20" as="geometry" />
        </mxCell>
        <mxCell id="V6bk0OhXfuwTqJnnZIJM-16" value="" style="shape=singleArrow;whiteSpace=wrap;html=1;arrowWidth=0.36;arrowSize=0.23333333333333334;" vertex="1" parent="1">
          <mxGeometry x="90" y="520" width="120" height="25" as="geometry" />
        </mxCell>
        <mxCell id="V6bk0OhXfuwTqJnnZIJM-17" value="Confeccionar minuta" style="ellipse;whiteSpace=wrap;html=1;" vertex="1" parent="1">
          <mxGeometry x="240" y="240" width="160" height="80" as="geometry" />
        </mxCell>
        <mxCell id="V6bk0OhXfuwTqJnnZIJM-18" value="Evaluar minuta" style="ellipse;whiteSpace=wrap;html=1;" vertex="1" parent="1">
          <mxGeometry x="220" y="490" width="150" height="80" as="geometry" />
        </mxCell>
        <mxCell id="V6bk0OhXfuwTqJnnZIJM-19" value="Imprimir listado" style="ellipse;whiteSpace=wrap;html=1;" vertex="1" parent="1">
          <mxGeometry x="220" y="580" width="150" height="80" as="geometry" />
        </mxCell>
        <mxCell id="V6bk0OhXfuwTqJnnZIJM-20" value="" style="shape=singleArrow;whiteSpace=wrap;html=1;arrowWidth=0.36;arrowSize=0.23333333333333334;" vertex="1" parent="1">
          <mxGeometry x="90" y="620" width="120" height="25" as="geometry" />
        </mxCell>
        <mxCell id="V6bk0OhXfuwTqJnnZIJM-21" value="Servidor AFIP&lt;div&gt;&lt;br&gt;&lt;div&gt;&lt;br&gt;&lt;/div&gt;&lt;/div&gt;" style="shape=umlActor;verticalLabelPosition=bottom;verticalAlign=top;html=1;outlineConnect=0;" vertex="1" parent="1">
          <mxGeometry x="740" y="400" width="40" height="80" as="geometry" />
        </mxCell>
        <mxCell id="V6bk0OhXfuwTqJnnZIJM-23" value="Verificar CUIT" style="ellipse;whiteSpace=wrap;html=1;" vertex="1" parent="1">
          <mxGeometry x="460" y="480" width="150" height="80" as="geometry" />
        </mxCell>
        <mxCell id="V6bk0OhXfuwTqJnnZIJM-28" value="Extends" style="endArrow=block;endSize=16;endFill=0;html=1;rounded=0;entryX=1;entryY=0.5;entryDx=0;entryDy=0;exitX=0.033;exitY=0.388;exitDx=0;exitDy=0;exitPerimeter=0;" edge="1" parent="1" source="V6bk0OhXfuwTqJnnZIJM-23" target="V6bk0OhXfuwTqJnnZIJM-18">
          <mxGeometry x="-0.0773" y="18" width="160" relative="1" as="geometry">
            <mxPoint x="451.24" y="499.32" as="sourcePoint" />
            <mxPoint x="430.0022834827412" y="559.9991900493108" as="targetPoint" />
            <mxPoint as="offset" />
          </mxGeometry>
        </mxCell>
        <mxCell id="V6bk0OhXfuwTqJnnZIJM-31" value="" style="endArrow=block;endSize=16;endFill=0;html=1;rounded=0;exitX=0.033;exitY=0.388;exitDx=0;exitDy=0;exitPerimeter=0;" edge="1" parent="1" target="V6bk0OhXfuwTqJnnZIJM-23">
          <mxGeometry x="-0.0773" y="18" width="160" relative="1" as="geometry">
            <mxPoint x="725" y="471" as="sourcePoint" />
            <mxPoint x="630" y="490" as="targetPoint" />
            <mxPoint as="offset" />
          </mxGeometry>
        </mxCell>
      </root>
    </mxGraphModel>
  </diagram>
</mxfile>
